<?xml version="1.0" encoding="UTF-8"?>
<svg xmlns="http://www.w3.org/2000/svg" xmlns:xlink="http://www.w3.org/1999/xlink"
     width="1111.28" height="512.6" viewBox="0 -512.6 1111.28 512.6">
<defs>
</defs>
<rect x="0" y="-512.6" width="1111.28" height="512.6" fill="white" />
<rect x="40" y="-412.6" width="236.64" height="172.8" stroke="black" fill="none" />
<path d="M40,-383.8 L276.64,-383.8" stroke="black" />
<text x="83.36109589041095" y="-394.25440000000003" font-size="14.399999999999999" fill="black" stroke="black" font-family="Consolas" dy="0em">Mix Wet Ingredients</text>
<path d="M158.32,-383.8 L158.32,-239.8" stroke="black" />
<path d="M40,-359.8 L158.32,-359.8" stroke="black" />
<text x="46.0" y="-368.5123287671233" font-size="12" font-family="Consolas" dy="0em">brown sugar</text>
<circle cx="40" cy="-371.8" r="3.75" fill="black" stroke-width="0" opacity="0.5">
<title>brown sugar</title>
</circle>
<path d="M40,-335.8 L158.32,-335.8" stroke="black" />
<text x="46.0" y="-344.5123287671233" font-size="12" font-family="Consolas" dy="0em">butter</text>
<circle cx="40" cy="-347.8" r="3.75" fill="black" stroke-width="0" opacity="0.5">
<title>butter</title>
</circle>
<path d="M40,-311.8 L158.32,-311.8" stroke="black" />
<text x="46.0" y="-320.5123287671233" font-size="12" font-family="Consolas" dy="0em">egg</text>
<circle cx="40" cy="-323.8" r="3.75" fill="black" stroke-width="0" opacity="0.5">
<title>egg</title>
</circle>
<path d="M40,-287.8 L158.32,-287.8" stroke="black" />
<text x="46.0" y="-296.5123287671233" font-size="12" font-family="Consolas" dy="0em">scale</text>
<circle cx="40" cy="-299.8" r="3.75" fill="black" stroke-width="0" opacity="0.5">
<title>scale</title>
</circle>
<path d="M40,-263.8 L158.32,-263.8" stroke="black" />
<text x="46.0" y="-272.5123287671233" font-size="12" font-family="Consolas" dy="0em">vanilla extract</text>
<circle cx="40" cy="-275.8" r="3.75" fill="black" stroke-width="0" opacity="0.5">
<title>vanilla extract</title>
</circle>
<text x="46.0" y="-248.5123287671233" font-size="12" font-family="Consolas" dy="0em">white sugar</text>
<circle cx="40" cy="-251.8" r="3.75" fill="black" stroke-width="0" opacity="0.5">
<title>white sugar</title>
</circle>
<text x="164.32" y="-308.5123287671233" font-size="12" font-family="Consolas" dy="0em">wet material</text>
<circle cx="276.64" cy="-311.8" r="3.75" fill="black" stroke-width="0" opacity="0.5">
<title>wet material</title>
</circle>
<rect x="40" y="-214.8" width="278.4" height="124.8" stroke="black" fill="none" />
<path d="M40,-186.0 L318.4,-186.0" stroke="black" />
<text x="104.24109589041095" y="-196.4544" font-size="14.399999999999999" fill="black" stroke="black" font-family="Consolas" dy="0em">Mix Dry Ingredients</text>
<path d="M179.2,-186.0 L179.2,-90.00000000000001" stroke="black" />
<path d="M40,-162.0 L179.2,-162.0" stroke="black" />
<text x="46.0" y="-170.7123287671233" font-size="12" font-family="Consolas" dy="0em">scale</text>
<circle cx="40" cy="-174.0" r="3.75" fill="black" stroke-width="0" opacity="0.5">
<title>scale</title>
</circle>
<path d="M40,-138.0 L179.2,-138.0" stroke="black" />
<text x="46.0" y="-146.7123287671233" font-size="12" font-family="Consolas" dy="0em">sodium bicarbonate</text>
<circle cx="40" cy="-150.0" r="3.75" fill="black" stroke-width="0" opacity="0.5">
<title>sodium bicarbonate</title>
</circle>
<path d="M40,-114.0 L179.2,-114.0" stroke="black" />
<text x="46.0" y="-122.71232876712328" font-size="12" font-family="Consolas" dy="0em">sodium chloride</text>
<circle cx="40" cy="-126.0" r="3.75" fill="black" stroke-width="0" opacity="0.5">
<title>sodium chloride</title>
</circle>
<path d="M40,-90.0 L179.2,-90.0" stroke="black" />
<text x="46.0" y="-98.71232876712328" font-size="12" font-family="Consolas" dy="0em">wheat flour</text>
<circle cx="40" cy="-102.0" r="3.75" fill="black" stroke-width="0" opacity="0.5">
<title>wheat flour</title>
</circle>
<path d="M179.2,-90.0 L318.4,-90.0" stroke="black" />
<text x="185.2" y="-134.7123287671233" font-size="12" font-family="Consolas" dy="0em">dry material</text>
<circle cx="318.4" cy="-138.0" r="3.75" fill="black" stroke-width="0" opacity="0.5">
<title>dry material</title>
</circle>
<rect x="388.4" y="-372.6" width="194.88" height="100.8" stroke="black" fill="none" />
<path d="M388.4,-343.8 L583.28,-343.8" stroke="black" />
<text x="450.33315068493147" y="-354.25440000000003" font-size="14.399999999999999" fill="black" stroke="black" font-family="Consolas" dy="0em">Mix Dough</text>
<path d="M485.84,-343.8 L485.84,-271.8" stroke="black" />
<path d="M388.4,-319.8 L485.84,-319.8" stroke="black" />
<text x="394.4" y="-328.5123287671233" font-size="12" font-family="Consolas" dy="0em">chocolate</text>
<circle cx="388.4" cy="-331.8" r="3.75" fill="black" stroke-width="0" opacity="0.5">
<title>chocolate</title>
</circle>
<path d="M388.4,-295.8 L485.84,-295.8" stroke="black" />
<text x="394.4" y="-304.5123287671233" font-size="12" font-family="Consolas" dy="0em">dry material</text>
<circle cx="388.4" cy="-307.8" r="3.75" fill="black" stroke-width="0" opacity="0.5">
<title>dry material</title>
</circle>
<text x="394.4" y="-280.5123287671233" font-size="12" font-family="Consolas" dy="0em">wet material</text>
<circle cx="388.4" cy="-283.8" r="3.75" fill="black" stroke-width="0" opacity="0.5">
<title>wet material</title>
</circle>
<text x="491.84" y="-304.5123287671233" font-size="12" font-family="Consolas" dy="0em">dough</text>
<circle cx="583.28" cy="-307.8" r="3.75" fill="black" stroke-width="0" opacity="0.5">
<title>dough</title>
</circle>
<rect x="653.28" y="-372.6" width="111.35999999999999" height="100.8" stroke="black" fill="none" />
<path d="M653.28,-343.8 L764.64,-343.8" stroke="black" />
<text x="661.6175342465752" y="-354.25440000000003" font-size="14.399999999999999" fill="black" stroke="black" font-family="Consolas" dy="0em">Bake Cookies</text>
<path d="M708.9599999999999,-343.8 L708.9599999999999,-271.8" stroke="black" />
<path d="M653.28,-319.8 L708.9599999999999,-319.8" stroke="black" />
<text x="659.28" y="-328.5123287671233" font-size="12" font-family="Consolas" dy="0em">dough</text>
<circle cx="653.28" cy="-331.8" r="3.75" fill="black" stroke-width="0" opacity="0.5">
<title>dough</title>
</circle>
<path d="M653.28,-295.8 L708.9599999999999,-295.8" stroke="black" />
<text x="659.28" y="-304.5123287671233" font-size="12" font-family="Consolas" dy="0em">oven</text>
<circle cx="653.28" cy="-307.8" r="3.75" fill="black" stroke-width="0" opacity="0.5">
<title>oven</title>
</circle>
<text x="659.28" y="-280.5123287671233" font-size="12" font-family="Consolas" dy="0em">scale</text>
<circle cx="653.28" cy="-283.8" r="3.75" fill="black" stroke-width="0" opacity="0.5">
<title>scale</title>
</circle>
<path d="M708.9599999999999,-307.8 L764.6399999999999,-307.8" stroke="black" />
<text x="714.9599999999999" y="-322.5123287671233" font-size="12" font-family="Consolas" dy="0em">cookie</text>
<circle cx="764.6399999999999" cy="-325.8" r="3.75" fill="black" stroke-width="0" opacity="0.5">
<title>cookie</title>
</circle>
<text x="714.9599999999999" y="-286.5123287671233" font-size="12" font-family="Consolas" dy="0em">oven</text>
<circle cx="764.6399999999999" cy="-289.8" r="3.75" fill="black" stroke-width="0" opacity="0.5">
<title>oven</title>
</circle>
<rect x="834.64" y="-372.6" width="236.64" height="76.8" stroke="black" fill="none" />
<path d="M834.64,-343.8 L1071.28,-343.8" stroke="black" />
<text x="905.6175342465754" y="-354.25440000000003" font-size="14.399999999999999" fill="black" stroke="black" font-family="Consolas" dy="0em">Test Cookies</text>
<path d="M952.96,-343.8 L952.96,-295.8" stroke="black" />
<path d="M834.64,-319.8 L952.96,-319.8" stroke="black" />
<text x="840.64" y="-328.5123287671233" font-size="12" font-family="Consolas" dy="0em">cookie</text>
<circle cx="834.64" cy="-331.8" r="3.75" fill="black" stroke-width="0" opacity="0.5">
<title>cookie</title>
</circle>
<text x="840.64" y="-304.5123287671233" font-size="12" font-family="Consolas" dy="0em">testing chamber</text>
<circle cx="834.64" cy="-307.8" r="3.75" fill="black" stroke-width="0" opacity="0.5">
<title>testing chamber</title>
</circle>
<text x="958.96" y="-316.5123287671233" font-size="12" font-family="Consolas" dy="0em">cookie</text>
<circle cx="1071.28" cy="-319.8" r="3.75" fill="black" stroke-width="0" opacity="0.5">
<title>cookie</title>
</circle>
<path d="M276.64,-311.8 L388.4,-283.8" stroke="black" stroke-width="3.0" fill="none" opacity="0.65">
<title>wet material</title>
</path>
<path d="M318.4,-138.0 L388.4,-307.8" stroke="black" stroke-width="3.0" fill="none" opacity="0.65">
<title>dry material</title>
</path>
<path d="M583.28,-307.8 L653.28,-331.8" stroke="black" stroke-width="3.0" fill="none" opacity="0.65">
<title>dough</title>
</path>
<path d="M764.6399999999999,-325.8 L834.64,-331.8" stroke="black" stroke-width="3.0" fill="none" opacity="0.65">
<title>cookie</title>
</path>
<text x="451.24" y="-458.6" font-size="30.0" font-family="Consolas" fill="black" stroke="black" dy="0em">Make Cookies</text>
</svg>